<svg width="62" height="69" viewBox="0 0 62 69" fill="none" xmlns="http://www.w3.org/2000/svg">
<path d="M30.5601 0.919998C49.0401 0.919998 61.0401 13.8 61.0401 34.6C61.0401 59.48 45.2801 68.28 30.5601 68.28C12.0001 68.28 0.0800781 55.08 0.0800781 34.6C0.0800781 24.2 3.20008 15.48 9.04008 9.48C14.4801 3.96 22.0801 0.919998 30.5601 0.919998ZM30.5601 61.72C45.5201 61.72 54.4001 51.96 54.4001 34.6C54.4001 14.44 42.2401 7.48 30.5601 7.48C18.8001 7.48 6.64008 15.16 6.64008 34.6C6.64008 54.68 18.8001 61.72 30.5601 61.72Z" fill="#060B0A"/>
</svg>
